<mxfile host="app.diagrams.net" modified="2021-04-03T06:48:23.317Z" agent="5.0 (Macintosh; Intel Mac OS X 10_15_7) AppleWebKit/537.36 (KHTML, like Gecko) Chrome/86.0.4240.193 Safari/537.36" etag="cZuVCuj8iwscDfnCfzUk" version="14.5.6" type="github">
  <diagram id="Fjm2TYBFH95Bv3WWNFhR" name="Page-1">
    <mxGraphModel dx="946" dy="536" grid="1" gridSize="10" guides="1" tooltips="1" connect="1" arrows="1" fold="1" page="1" pageScale="1" pageWidth="827" pageHeight="1169" math="0" shadow="0">
      <root>
        <mxCell id="0" />
        <mxCell id="1" parent="0" />
        <mxCell id="YKEdqVdi63BLUVKtVebM-4" style="edgeStyle=orthogonalEdgeStyle;rounded=0;orthogonalLoop=1;jettySize=auto;html=1;entryX=0.5;entryY=0;entryDx=0;entryDy=0;" edge="1" parent="1" source="YKEdqVdi63BLUVKtVebM-1" target="YKEdqVdi63BLUVKtVebM-2">
          <mxGeometry relative="1" as="geometry" />
        </mxCell>
        <mxCell id="YKEdqVdi63BLUVKtVebM-1" value="&lt;pre&gt;init&lt;/pre&gt;" style="rounded=1;whiteSpace=wrap;html=1;fillColor=#f5f5f5;strokeColor=#666666;fontColor=#333333;" vertex="1" parent="1">
          <mxGeometry x="190" y="210" width="120" height="60" as="geometry" />
        </mxCell>
        <mxCell id="YKEdqVdi63BLUVKtVebM-5" style="edgeStyle=orthogonalEdgeStyle;rounded=0;orthogonalLoop=1;jettySize=auto;html=1;exitX=0.5;exitY=1;exitDx=0;exitDy=0;entryX=0.5;entryY=0;entryDx=0;entryDy=0;" edge="1" parent="1" source="YKEdqVdi63BLUVKtVebM-2" target="YKEdqVdi63BLUVKtVebM-3">
          <mxGeometry relative="1" as="geometry" />
        </mxCell>
        <mxCell id="YKEdqVdi63BLUVKtVebM-2" value="&lt;pre&gt;service&lt;/pre&gt;" style="rounded=1;whiteSpace=wrap;html=1;fillColor=#f5f5f5;strokeColor=#666666;fontColor=#333333;" vertex="1" parent="1">
          <mxGeometry x="190" y="330" width="120" height="60" as="geometry" />
        </mxCell>
        <mxCell id="YKEdqVdi63BLUVKtVebM-3" value="&lt;pre&gt;destroy&lt;/pre&gt;" style="rounded=1;whiteSpace=wrap;html=1;fillColor=#f5f5f5;strokeColor=#666666;fontColor=#333333;" vertex="1" parent="1">
          <mxGeometry x="190" y="450" width="120" height="60" as="geometry" />
        </mxCell>
        <mxCell id="YKEdqVdi63BLUVKtVebM-6" value="" style="shape=curlyBracket;whiteSpace=wrap;html=1;rounded=1;" vertex="1" parent="1">
          <mxGeometry x="130" y="240" width="20" height="240" as="geometry" />
        </mxCell>
        <mxCell id="YKEdqVdi63BLUVKtVebM-8" value="Servlet生命周期" style="text;html=1;strokeColor=none;fillColor=none;align=center;verticalAlign=middle;whiteSpace=wrap;rounded=0;" vertex="1" parent="1">
          <mxGeometry x="10" y="350" width="100" height="20" as="geometry" />
        </mxCell>
        <mxCell id="YKEdqVdi63BLUVKtVebM-9" value="在Servlet一生中只会被调用一次，而且必须在容器调用service方法之前完成" style="shape=note;strokeWidth=2;fontSize=14;size=20;whiteSpace=wrap;html=1;fillColor=#fff2cc;strokeColor=#d6b656;fontColor=#666600;" vertex="1" parent="1">
          <mxGeometry x="380" y="205" width="250" height="70" as="geometry" />
        </mxCell>
        <mxCell id="YKEdqVdi63BLUVKtVebM-10" value="处理客户请求，每个请求都在一个&lt;br&gt;单独的线程中运行" style="shape=note;strokeWidth=2;fontSize=14;size=20;whiteSpace=wrap;html=1;fillColor=#fff2cc;strokeColor=#d6b656;fontColor=#666600;" vertex="1" parent="1">
          <mxGeometry x="380" y="325" width="250" height="70" as="geometry" />
        </mxCell>
        <mxCell id="YKEdqVdi63BLUVKtVebM-11" value="容器调用这个方法，在servlet销毁之前&lt;br&gt;进行资源清理等，destroy也只会被调用一次" style="shape=note;strokeWidth=2;fontSize=14;size=20;whiteSpace=wrap;html=1;fillColor=#fff2cc;strokeColor=#d6b656;fontColor=#666600;" vertex="1" parent="1">
          <mxGeometry x="380" y="450" width="290" height="70" as="geometry" />
        </mxCell>
      </root>
    </mxGraphModel>
  </diagram>
</mxfile>
